<svg data-v-fde0c5aa="" xmlns="http://www.w3.org/2000/svg" viewBox="0 0 300 300" class="iconLeft"><!----><defs data-v-fde0c5aa=""><!----></defs><rect data-v-fde0c5aa="" fill="transparent" x="0" y="0" width="300px" height="300px" class="logo-background-square"></rect><defs data-v-fde0c5aa=""><!----></defs><g data-v-fde0c5aa="" id="de3881a5-96cd-4aa6-96c9-6cffb722bdfb" fill="#000000" transform="matrix(1.4652792230179832,0,0,1.4652792230179832,74.64217339732804,142.40985387629868)"><path d="M4.00 10.36C6.12 10.36 7.24 8.92 7.24 7.56C7.24 6.16 6.17 5.33 4.65 4.96L3.35 4.65C1.90 4.31 1.76 3.54 1.76 3.09C1.76 2.02 2.79 1.33 3.88 1.33C5.04 1.33 5.92 2.02 5.98 3.08L6.90 3.08C6.85 1.47 5.54 0.46 3.91 0.46C2.31 0.46 0.84 1.50 0.84 3.09C0.84 3.86 1.13 5.03 3.12 5.50L4.42 5.81C5.38 6.05 6.31 6.55 6.31 7.60C6.31 8.51 5.54 9.49 4.00 9.49C2.65 9.49 1.78 8.58 1.68 7.63L0.77 7.63C0.84 9.03 2.11 10.36 4.00 10.36ZM12.21 3.54C11.40 3.54 10.33 3.92 9.94 4.86L9.94 0L9.04 0L9.04 10.22L9.94 10.22L9.94 6.59C9.97 5.01 11.07 4.42 12.12 4.42C13.17 4.42 13.97 5.19 13.97 6.45L13.97 10.22L14.87 10.22L14.87 6.41C14.87 4.61 13.79 3.54 12.21 3.54ZM22.48 3.68L22.48 4.94C21.99 4.06 20.99 3.54 19.88 3.54C18.05 3.54 16.56 4.96 16.56 6.94C16.56 8.93 18.06 10.36 19.88 10.36C20.97 10.36 21.99 9.84 22.48 8.95L22.48 10.22L23.38 10.22L23.38 3.68ZM19.95 9.51C18.58 9.51 17.46 8.39 17.46 6.93C17.46 5.49 18.58 4.40 19.95 4.40C21.25 4.40 22.48 5.39 22.48 6.97C22.48 8.48 21.31 9.51 19.95 9.51ZM31.09 0L31.09 4.94C30.60 4.06 29.60 3.54 28.49 3.54C26.66 3.54 25.17 4.96 25.17 6.94C25.17 8.93 26.67 10.36 28.49 10.36C29.58 10.36 30.60 9.84 31.09 8.95L31.09 10.22L31.99 10.22L31.99 0ZM28.56 9.51C27.19 9.51 26.07 8.39 26.07 6.93C26.07 5.49 27.19 4.40 28.56 4.40C29.86 4.40 31.09 5.39 31.09 6.97C31.09 8.48 29.92 9.51 28.56 9.51ZM37.20 10.36C39.06 10.36 40.63 9.00 40.63 6.93C40.63 4.86 39.06 3.54 37.20 3.54C35.34 3.54 33.78 4.86 33.78 6.93C33.78 9.00 35.34 10.36 37.20 10.36ZM37.20 9.51C35.81 9.51 34.68 8.48 34.68 6.93C34.68 5.39 35.81 4.40 37.20 4.40C38.57 4.40 39.73 5.39 39.73 6.93C39.73 8.48 38.57 9.51 37.20 9.51ZM50.96 3.68L49.06 8.86L47.14 3.68L46.21 3.68L44.31 8.88L42.39 3.68L41.43 3.68L43.93 10.22L44.72 10.22L46.66 4.87L48.69 10.22L49.48 10.22L51.91 3.68ZM55.05 10.36C56.41 10.36 57.46 9.62 57.46 8.46C57.46 7.70 57.06 6.93 55.79 6.62L54.82 6.38C54.35 6.27 53.82 6.01 53.82 5.39C53.82 4.77 54.33 4.34 55.09 4.34C55.73 4.34 56.31 4.73 56.35 5.32L57.22 5.32C57.18 4.14 56.17 3.54 55.08 3.54C53.83 3.54 52.92 4.31 52.92 5.38C52.92 6.47 53.66 6.94 54.59 7.17L55.52 7.39C56.20 7.56 56.56 7.91 56.56 8.44C56.56 9.10 55.99 9.56 55.05 9.56C54.10 9.56 53.59 9.00 53.49 8.46L52.67 8.46C52.78 9.70 53.91 10.36 55.05 10.36ZM74.16 10.22L72.95 0.57L72.10 0.57L68.39 8.23L64.68 0.57L63.81 0.57L62.62 10.22L63.52 10.22L64.51 2.20L67.97 9.23L68.82 9.23L72.25 2.23L73.25 10.22ZM80.96 3.68L80.96 7.31C80.95 8.89 79.83 9.48 78.79 9.48C77.73 9.48 76.94 8.71 76.94 7.45L76.94 3.68L76.05 3.68L76.05 7.49C76.03 9.30 77.11 10.36 78.69 10.36C79.51 10.36 80.57 10.00 80.96 9.07L80.96 10.22L81.86 10.22L81.86 3.68ZM84.10 10.22L84.99 10.22L84.99 0L84.10 0ZM90.06 3.68L88.56 3.68L88.56 1.08L87.68 1.08L87.68 3.68L86.49 3.68L86.49 4.45L87.68 4.45L87.68 10.22L88.56 10.22L88.56 4.45L90.06 4.45ZM91.90 1.90C92.29 1.90 92.60 1.64 92.60 1.27C92.60 0.90 92.29 0.63 91.90 0.63C91.53 0.63 91.21 0.90 91.21 1.27C91.21 1.64 91.53 1.90 91.90 1.90ZM91.45 10.22L92.34 10.22L92.34 3.68L91.45 3.68ZM99.22 3.68L96.95 9.13L94.71 3.68L93.76 3.68L96.49 10.22L97.41 10.22L100.18 3.68ZM107.51 6.93C107.51 4.86 106.15 3.54 104.29 3.54C102.44 3.54 100.95 4.86 100.95 6.93C100.95 9.00 102.44 10.36 104.29 10.36C105.52 10.36 106.64 9.77 107.21 8.72L106.44 8.39C106.01 9.10 105.21 9.51 104.31 9.51C103.00 9.51 102.02 8.72 101.86 7.32L107.49 7.32C107.51 7.20 107.51 7.06 107.51 6.93ZM101.88 6.55C102.05 5.15 103.00 4.40 104.29 4.40C105.56 4.40 106.50 5.19 106.62 6.55ZM112.21 3.54C111.19 3.54 110.49 4.17 110.17 5.28L110.17 3.68L109.26 3.68L109.26 10.22L110.17 10.22L110.17 7.76C110.17 6.15 110.64 4.41 112.20 4.41C112.43 4.41 112.74 4.45 113.08 4.59L113.25 3.74C112.99 3.61 112.57 3.54 112.21 3.54ZM116.24 10.36C117.60 10.36 118.65 9.62 118.65 8.46C118.65 7.70 118.26 6.93 116.98 6.62L116.02 6.38C115.54 6.27 115.01 6.01 115.01 5.39C115.01 4.77 115.53 4.34 116.28 4.34C116.93 4.34 117.50 4.73 117.54 5.32L118.41 5.32C118.37 4.14 117.36 3.54 116.27 3.54C115.02 3.54 114.11 4.31 114.11 5.38C114.11 6.47 114.86 6.94 115.78 7.17L116.72 7.39C117.39 7.56 117.75 7.91 117.75 8.44C117.75 9.10 117.18 9.56 116.24 9.56C115.29 9.56 114.79 9.00 114.69 8.46L113.86 8.46C113.97 9.70 115.11 10.36 116.24 10.36ZM126.50 6.93C126.50 4.86 125.15 3.54 123.28 3.54C121.44 3.54 119.95 4.86 119.95 6.93C119.95 9.00 121.44 10.36 123.28 10.36C124.52 10.36 125.64 9.77 126.21 8.72L125.44 8.39C125.01 9.10 124.21 9.51 123.31 9.51C122.00 9.51 121.02 8.72 120.86 7.32L126.49 7.32C126.50 7.20 126.50 7.06 126.50 6.93ZM120.88 6.55C121.04 5.15 122.00 4.40 123.28 4.40C124.56 4.40 125.50 5.19 125.62 6.55Z"></path></g><defs data-v-fde0c5aa=""><linearGradient data-v-fde0c5aa="" gradientTransform="rotate(25)" id="e105752b-c3b1-4ff2-a9a1-c392ef1cb7bb" x1="0%" y1="0%" x2="100%" y2="0%"><stop data-v-fde0c5aa="" offset="0%" stop-color="#E90DDA" stop-opacity="1"></stop><stop data-v-fde0c5aa="" offset="100%" stop-color="#15CFF1" stop-opacity="1"></stop></linearGradient></defs><g data-v-fde0c5aa="" id="75f580ae-9d6b-4909-bd80-8d151ad0fe13" stroke="none" fill="url(#e105752b-c3b1-4ff2-a9a1-c392ef1cb7bb)" transform="matrix(0.7115761990969972,0,0,0.7115761990969972,40,138.61478081444804)"><path d="M9.382 8.675h13.943v13.943L32 31.293V0H.707zM22.618 23.325H8.675V9.382L0 .707V32h31.293z"></path></g><!----></svg>